<?xml version="1.0" ?><svg id="Outline" viewBox="0 0 512 512" xmlns="http://www.w3.org/2000/svg"><defs><style>.cls-1{fill:#262626;}</style></defs><path class="cls-1" d="M357.71,154.32a11.33,11.33,0,0,0-16,0l-87.41,87.41-89.18-89.18a11.34,11.34,0,1,0-16,16l89.18,89.18-87.41,87.41a11.34,11.34,0,1,0,16,16l87.42-87.42,85.64,85.65a11.34,11.34,0,0,0,16-16L270.3,257.77l87.41-87.41A11.34,11.34,0,0,0,357.71,154.32Z"/><path class="cls-1" d="M377.75,58.65H133.47a74.91,74.91,0,0,0-74.82,74.82V377.75a74.9,74.9,0,0,0,74.82,74.81H377.75a74.9,74.9,0,0,0,74.81-74.81V133.47A74.9,74.9,0,0,0,377.75,58.65Zm52.13,319.1a52.18,52.18,0,0,1-52.13,52.13H133.47a52.19,52.19,0,0,1-52.14-52.13V133.47a52.2,52.2,0,0,1,52.14-52.14H377.75a52.19,52.19,0,0,1,52.13,52.14Z"/></svg>